<svg xmlns="http://www.w3.org/2000/svg" width="128" height="128" viewBox="0 0 128 128">
  <defs>
    <linearGradient id="bg" x1="0%" y1="0%" x2="100%" y2="100%">
      <stop offset="0%" style="stop-color:#1a0533"/>
      <stop offset="100%" style="stop-color:#0d1b3e"/>
    </linearGradient>
    <linearGradient id="glow" x1="0%" y1="0%" x2="100%" y2="100%">
      <stop offset="0%" style="stop-color:#8b5cf6"/>
      <stop offset="100%" style="stop-color:#06b6d4"/>
    </linearGradient>
  </defs>
  <rect width="128" height="128" rx="24" fill="url(#bg)"/>
  <path d="M64 25 C45 25, 30 40, 30 55 C30 65, 35 72, 42 78 L38 98 L50 88 C54 90, 59 91, 64 91 C83 91, 98 76, 98 55 C98 40, 83 25, 64 25Z" fill="url(#glow)" opacity="0.85"/>
  <circle cx="52" cy="52" r="5" fill="#fff"/>
  <circle cx="76" cy="52" r="5" fill="#fff"/>
  <path d="M50 65 Q64 78, 78 65" stroke="#fff" stroke-width="3" fill="none" stroke-linecap="round"/>
  <path d="M20 100 L108 100" stroke="url(#glow)" stroke-width="2" opacity="0.6" stroke-dasharray="4,4"/>
</svg>
